<svg width="200" height="200" viewBox="0 0 200 200" fill="none" xmlns="http://www.w3.org/2000/svg">
<path d="M100 200C155.228 200 200 155.228 200 100C200 44.7715 155.228 0 100 0C44.7715 0 0 44.7715 0 100C0 155.228 44.7715 200 100 200Z" fill="black"/>
<path d="M82.1942 164.388C127.589 164.388 164.389 127.589 164.389 82.1942C164.389 36.7996 127.589 0 82.1942 0C36.7996 0 0 36.7996 0 82.1942C0 127.589 36.7996 164.388 82.1942 164.388Z" transform="translate(17.8057 17.8058)" fill="#D2D2D2"/>
<path opacity="0.52" d="M129.496 141.367C115.827 151.978 98.5612 158.273 80.036 158.273C76.4389 158.273 72.8417 158.094 69.4245 157.554C30.036 151.259 -6.86097e-07 117.266 -6.86097e-07 76.259C-6.86097e-07 52.3381 10.2518 30.7554 26.6187 15.6475C34.3525 8.81295 43.5252 3.59712 53.5971 -3.43048e-07C24.2806 12.2302 3.41727 41.0072 3.41727 74.8201C3.41727 119.424 39.5683 155.396 83.9928 155.396C100.899 155.396 116.547 150.18 129.496 141.367Z" transform="translate(17.8057 23.741)" fill="white"/>
<path opacity="0.21" d="M6.86097e-07 16.9065C13.6691 6.29496 30.9352 -6.86097e-07 49.4604 -6.86097e-07C53.0576 -6.86097e-07 56.6547 0.179856 60.0719 0.719425C99.2806 6.83453 129.317 40.8273 129.317 81.8345C129.317 105.755 119.065 127.338 102.698 142.446C94.964 149.281 85.7914 154.496 75.7194 158.094C105.216 146.043 125.899 117.266 125.899 83.4532C125.899 38.8489 89.7482 2.8777 45.3237 2.8777C28.5971 2.8777 12.9496 8.09352 6.86097e-07 16.9065Z" transform="translate(51.4388 17.8058)" fill="white"/>
<path d="M65.8273 131.655C102.183 131.655 131.655 102.183 131.655 65.8273C131.655 29.4719 102.183 0 65.8273 0C29.4719 0 0 29.4719 0 65.8273C0 102.183 29.4719 131.655 65.8273 131.655Z" transform="translate(34.1727 34.1727)" fill="url(#paint0_radial)"/>
<path opacity="0.37" d="M53.4173 -2.74439e-06C40.2878 -2.74439e-06 28.4173 2.69784 20.5036 7.01439C12.7698 9.71223 5.57554 16.7266 4.13669 18.3453C1.43885 21.0432 6.86097e-07 23.9209 6.86097e-07 26.9784C6.86097e-07 30.3957 1.79856 33.4532 4.85611 36.3309C3.95683 37.5899 3.41727 39.0288 3.41727 40.6475C3.41727 42.9856 4.4964 45.5036 6.29497 47.1223L6.83453 47.6619V81.1151C6.83453 83.0935 8.45324 84.7122 10.6115 84.7122H73.9209C75.1799 84.7122 76.0791 84.1727 76.9784 83.4532H80.9353C82.3741 83.4532 83.4532 82.7338 84.7122 81.8345L88.8489 77.8777C89.5684 77.1583 90.1079 76.259 90.1079 75.3597V32.9137C90.1079 31.8345 90.6475 30.9353 91.3669 30.2158C94.964 27.3381 97.1223 23.741 97.1223 20.1439C96.9425 8.9928 77.518 -2.74439e-06 53.4173 -2.74439e-06Z" transform="translate(48.741 62.2302)" fill="url(#paint1_linear)"/>
<path opacity="0.3" d="M66.0072 121.223C32.554 121.223 5.57554 94.2446 5.57554 60.7914C5.57554 27.3381 32.554 0.359712 66.0072 0.359712C68.3453 0.359712 70.8633 0.539569 73.2014 0.719425C69.964 0.179857 66.7266 1.37219e-06 63.3094 1.37219e-06C28.4173 1.37219e-06 -1.37219e-06 28.2374 -1.37219e-06 63.3094C-1.37219e-06 98.3813 28.4173 126.439 63.3094 126.439C98.2014 126.439 126.619 98.2014 126.619 63.1295C126.619 62.7698 126.619 62.2302 126.619 61.8705C125.719 94.7842 99.1007 121.223 66.0072 121.223Z" transform="translate(37.4101 38.1295)" fill="url(#paint2_radial)"/>
<g opacity="0.3">
<path opacity="0.3" d="M4.5357 44.0647H6.87383H68.5645H70.7228C73.4206 44.0647 75.5789 41.3669 75.2192 38.4892C72.7012 16.7266 56.8738 0 37.8091 0C18.5645 0 2.91699 16.7266 0.0392965 38.4892C-0.320416 41.5468 1.83786 44.0647 4.5357 44.0647Z" transform="translate(61.8312 26.9784)" fill="#505050"/>
<path opacity="0.3" d="M3.05755 0.269783C2.8777 0.269783 2.69784 0.269783 2.69784 0.269783C1.97842 0.269783 1.259 0.0899294 0.899283 0.0899294C0.719427 0.0899294 0.539566 0.0899267 0.35971 0.269783C0.179853 0.449639 2.74439e-06 0.629498 2.74439e-06 0.98921V68.795C2.74439e-06 70.2338 1.259 71.4928 2.69784 71.4928C3.05756 71.4928 3.23741 71.4928 3.59713 71.313C3.77698 71.313 3.95683 71.1331 4.31655 70.9532C5.03597 70.4137 5.57554 69.6942 5.57554 68.795V0.80935C5.21583 -0.449643 4.31654 0.0899267 3.05755 0.269783Z" transform="translate(84.3525 104.586)" fill="#505050"/>
<path opacity="0.3" d="M2.8777 0.269783C2.69784 0.269783 2.51798 0.269783 2.51798 0.269783C1.79856 0.269783 1.07914 0.0899294 0.719423 0.0899294C0.539567 0.0899294 0.359712 0.0899267 0.179856 0.269783C0 0.449639 2.74439e-06 0.629498 2.74439e-06 0.98921V68.795C2.74439e-06 69.5144 0.359711 70.2338 0.719423 70.5935C1.25899 71.1331 1.79856 71.313 2.51798 71.313C2.8777 71.313 3.05755 71.3129 3.41727 71.1331C3.59712 71.1331 3.77698 70.9532 4.13669 70.7734C4.85612 70.2338 5.39569 69.5144 5.39569 68.6151V0.80935C5.03597 -0.449643 4.13669 0.0899267 2.8777 0.269783Z" transform="translate(96.9424 104.586)" fill="#505050"/>
<path opacity="0.3" d="M2.8777 0.269783C2.69784 0.269783 2.69784 0.269783 2.51799 0.269783C2.33813 0.269783 2.15828 0.269783 1.97842 0.269783C1.43885 0.269783 1.07914 0.0899294 0.719426 0.0899294C0.53957 0.0899294 0.359715 0.0899267 0.179859 0.269783C2.74707e-06 0.449639 -1.37219e-06 0.629498 -1.37219e-06 0.98921V68.795C-1.37219e-06 69.5144 0.359714 70.2338 0.719426 70.5935C1.25899 71.1331 1.79856 71.313 2.51799 71.313C2.8777 71.313 3.05756 71.3129 3.41727 71.1331C4.49641 70.7734 5.21583 69.8741 5.21583 68.6151V0.80935C5.03597 -0.449643 4.13669 0.0899267 2.8777 0.269783Z" transform="translate(109.353 104.586)" fill="#505050"/>
</g>
<path d="M85.2518 76.4388L81.1151 80.2158C80.036 81.295 78.9569 81.8345 77.3382 81.8345H11.1511C8.99281 81.8345 7.19424 80.2158 7.19424 78.2374V36.8705C7.19424 35.7914 6.65467 34.8921 5.93525 34.1727C2.15827 31.295 -1.37219e-06 27.8777 -1.37219e-06 24.2806C-1.37219e-06 21.223 1.61871 18.1655 4.31655 15.6475C7.91367 11.6907 13.4892 7.55396 18.3453 5.57554C18.8849 5.57554 85.2518 76.4388 85.2518 76.4388ZM93.7051 19.964C93.7051 8.99281 73.9209 1.37219e-06 49.4604 1.37219e-06C25 1.37219e-06 5.21583 8.99281 5.21583 19.964C5.21583 23.5611 7.3741 26.9784 11.1511 29.8561C12.0504 30.5755 12.4101 31.4748 12.4101 32.554V73.9209C12.4101 75.8993 14.2086 77.518 16.3669 77.518H82.554C84.7122 77.518 86.5108 75.8993 86.5108 73.9209V32.3741C86.5108 31.295 87.0504 30.3957 87.7698 29.6763C91.5468 26.7986 93.7051 23.5611 93.7051 19.964Z" transform="translate(52.6979 63.3093)" fill="#BA7A3A"/>
<path d="M87.0504 20.1439C87.0504 8.99281 67.6259 0 43.5252 0C19.4245 0 -1.37219e-06 8.99281 -1.37219e-06 20.1439C-1.37219e-06 23.741 2.15827 27.3381 5.7554 30.2158C6.65468 30.9352 7.01439 31.8345 7.01439 32.9137V75C7.01439 76.9784 8.81295 78.5971 10.9712 78.5971H76.0791C78.2374 78.5971 80.036 76.9784 80.036 75V32.7338C80.036 31.6547 80.5755 30.7554 81.295 30.036C84.8921 27.1583 87.0504 23.741 87.0504 20.1439Z" transform="translate(56.295 64.7482)" fill="#FFE18D"/>
<path d="M70.7228 44.0647C73.4206 44.0647 75.5789 41.3669 75.2192 38.4892C72.5213 16.7266 56.694 6.86097e-07 37.6292 6.86097e-07C18.5645 6.86097e-07 2.73714 16.7266 0.0392938 38.4892C-0.320419 41.3669 1.83786 44.0647 4.5357 44.0647H70.7228Z" transform="translate(66.5075 25.3597)" fill="#409AE1"/>
<path d="M4.31654 0H0V1.79856H4.31654V0Z" transform="translate(111.222 63.6024) rotate(40.6367)" fill="black"/>
<path d="M61.8705 33.4532C61.3309 14.9281 47.6619 0 30.9353 0C14.2086 0 0.53957 14.9281 1.37219e-06 33.4532H61.8705Z" transform="translate(73.2014 35.9712)" fill="#007ACC"/>
<path opacity="0.46" d="M2.33813 4.67626C3.62944 4.67626 4.67626 3.62944 4.67626 2.33813C4.67626 1.04682 3.62944 0 2.33813 0C1.04681 0 0 1.04682 0 2.33813C0 3.62944 1.04681 4.67626 2.33813 4.67626Z" transform="translate(106.655 42.8057)" fill="#76AEC8"/>
<path opacity="0.46" d="M2.33814 4.67626C3.62945 4.67626 4.67626 3.62944 4.67626 2.33813C4.67626 1.04681 3.62945 0 2.33814 0C1.04682 0 0 1.04681 0 2.33813C0 3.62944 1.04682 4.67626 2.33814 4.67626Z" transform="translate(120.504 42.2662)" fill="#76AEC8"/>
<path opacity="0.46" d="M2.33813 4.67626C3.62945 4.67626 4.67625 3.62944 4.67625 2.33813C4.67625 1.04682 3.62945 0 2.33813 0C1.04682 0 -2.74439e-06 1.04682 -2.74439e-06 2.33813C-2.74439e-06 3.62944 1.04682 4.67626 2.33813 4.67626Z" transform="translate(124.281 54.3165)" fill="#76AEC8"/>
<path opacity="0.46" d="M2.15827 4.31655C3.35025 4.31655 4.31655 3.35026 4.31655 2.15827C4.31655 0.966292 3.35025 0 2.15827 0C0.966289 0 2.74439e-06 0.966292 2.74439e-06 2.15827C2.74439e-06 3.35026 0.966289 4.31655 2.15827 4.31655Z" transform="translate(84.3525 53.5971)" fill="#76AEC8"/>
<path opacity="0.5" d="M25.6724 2.89294C25.6724 1.27424 24.2335 -0.164612 22.435 0.0152437C6.60762 0.734668 0.672366 12.6052 0.312654 13.1447C-0.406771 14.5836 0.132796 16.562 1.7515 17.2814C1.93136 17.4613 2.29107 17.4613 2.65078 17.6411C3.90977 17.821 5.34862 17.2814 5.88819 16.0224C6.06805 15.6627 10.7443 6.84978 22.7947 6.31021C24.4134 5.9505 25.8522 4.51165 25.6724 2.89294Z" transform="translate(77.9248 33.0783)" fill="#79D7F2"/>
<path d="M5.39568 68.6229V0.817125C5.39568 -0.621724 4.13669 0.277559 2.69784 0.277559C1.25899 0.277559 -2.74439e-06 -0.621724 -2.74439e-06 0.817125V68.6229C-2.74439e-06 70.0617 1.25899 71.3207 2.69784 71.3207C4.13669 71.3207 5.39568 70.0617 5.39568 68.6229Z" transform="translate(86.5108 102.96)" fill="#006FC8"/>
<path d="M0 68.6229V0.817125C0 -0.621724 1.25899 0.277559 2.69784 0.277559C4.13669 0.277559 5.39568 -0.621724 5.39568 0.817125V68.6229C5.39568 70.0617 4.13669 71.3207 2.69784 71.3207C1.07914 71.1409 0 70.0617 0 68.6229Z" transform="translate(111.511 102.96)" fill="#409AE1"/>
<path d="M1.07914 69.5222V1.71641C1.07914 0.996982 0.719423 0.817125 0.179855 0.817125C0.179855 0.457413 0.179858 0.277559 1.37219e-06 0.277559C0.179858 0.277559 0.359715 0.277559 0.359715 0.277559C1.79856 0.277559 3.05756 -0.621724 3.05756 0.817125V68.6229C3.05756 70.0617 1.79856 71.3207 0.359715 71.3207C0.359715 71.3207 0.359711 71.3207 0.179855 71.3207C0.719423 70.7812 1.07914 70.0617 1.07914 69.5222Z" transform="translate(113.669 102.96)" fill="#006FC8"/>
<path d="M1.37219e-06 68.6229V0.817125C1.37219e-06 -0.621724 1.25899 0.277559 2.69784 0.277559C4.13669 0.277559 5.39569 -0.621724 5.39569 0.817125V68.6229C5.39569 70.0617 4.13669 71.3207 2.69784 71.3207C1.25899 71.3207 1.37219e-06 70.0617 1.37219e-06 68.6229Z" transform="translate(99.2806 102.96)" fill="#409AE1"/>
<path d="M1.07914 69.5222V1.71641C1.07914 0.996982 0.719427 0.817125 0.179859 0.817125C0.179859 0.457413 0.179855 0.277559 -1.37219e-06 0.277559C0.179855 0.277559 0.359712 0.277559 0.359712 0.277559C1.79856 0.277559 3.05755 -0.621724 3.05755 0.817125V68.6229C3.05755 70.0617 1.79856 71.3207 0.359712 71.3207C0.359712 71.3207 0.359715 71.3207 0.179859 71.3207C0.899283 70.7812 1.07914 70.0617 1.07914 69.5222Z" transform="translate(101.259 102.96)" fill="#006FC8"/>
<path d="M2.8777 68.6229V0.817125C2.8777 0.457413 2.8777 0.277559 3.05756 0.277559C2.8777 0.277559 2.69784 0.277559 2.69784 0.277559C1.25899 0.277559 1.37219e-06 -0.621724 1.37219e-06 0.817125V68.6229C1.37219e-06 70.0617 1.25899 71.3207 2.69784 71.3207C3.23741 71.3207 3.77698 71.1409 4.13669 70.7812C3.41727 70.2416 2.8777 69.5222 2.8777 68.6229Z" transform="translate(86.6907 102.96)" fill="#409AE1"/>
<path d="M18.1655 0.85074V12.3615C17.446 12.7212 16.7266 12.9011 15.8273 12.9011C14.7482 12.9011 13.6691 12.5414 12.7698 12.1817V1.03059C12.7698 -0.408256 14.0288 0.491026 15.4676 0.491026C16.9065 0.31117 18.1655 -0.58811 18.1655 0.85074ZM40.2878 0.311173C38.8489 0.311173 37.5899 -0.58811 37.5899 0.85074V12.1817C38.4892 12.5414 39.3885 12.9011 40.4676 12.9011C41.3669 12.9011 42.2662 12.7212 42.9856 12.3615V1.03059C42.9856 -0.588112 41.7266 0.311173 40.2878 0.311173ZM27.8777 0.311173C26.4389 0.311173 25.1799 -0.58811 25.1799 0.85074V12.0018C26.0791 12.5414 26.9784 12.7212 28.0576 12.7212C28.9568 12.7212 29.6763 12.5414 30.3957 12.1817V0.670879C30.5755 -0.588114 29.3165 0.311173 27.8777 0.311173ZM52.518 12.9011C53.5971 12.9011 54.6763 12.5414 55.5755 12.0018V0.85074C55.5755 -0.58811 54.3166 0.311173 52.8777 0.311173C51.4389 0.311173 50.1799 -0.58811 50.1799 0.85074V12.3615C51.0791 12.7212 51.7986 12.9011 52.518 12.9011ZM2.69784 0.311173C1.25899 0.311173 -1.37219e-06 -0.58811 -1.37219e-06 0.85074V11.822C0.899279 12.3615 1.97841 12.7212 3.23741 12.7212C3.95683 12.7212 4.67626 12.5414 5.21583 12.3615V0.85074C5.39569 -0.58811 4.31655 0.311173 2.69784 0.311173Z" transform="translate(76.0792 74.1493)" fill="#503F6B"/>
<path d="M1.37219e-06 -2.74439e-06V6.65467C1.37219e-06 10.0719 2.8777 12.9496 6.29497 12.9496C9.53238 12.9496 12.2302 10.4317 12.5899 7.19424C12.9496 10.4317 15.6475 12.9496 18.8849 12.9496C21.9424 12.9496 24.4604 10.7914 25 7.91367C25.5396 10.7914 28.0576 12.9496 31.1151 12.9496C34.1727 12.9496 36.6907 10.7914 37.2302 7.91367C37.7698 10.7914 40.2878 12.9496 43.3453 12.9496C46.223 12.9496 48.741 10.9712 49.4604 8.27338C50.1799 10.9712 52.6978 12.9496 55.5755 12.9496C58.9928 12.9496 61.8705 10.0719 61.8705 6.65467V-2.74439e-06H1.37219e-06Z" transform="translate(73.2014 69.4245)" fill="#005291"/>
<path d="M3.77698 7.55396C5.86295 7.55396 7.55396 5.86295 7.55396 3.77698C7.55396 1.69101 5.86295 0 3.77698 0C1.69101 0 0 1.69101 0 3.77698C0 5.86295 1.69101 7.55396 3.77698 7.55396Z" transform="translate(94.7842 50)" fill="black"/>
<path d="M3.77698 7.55396C5.86295 7.55396 7.55395 5.86295 7.55395 3.77698C7.55395 1.69101 5.86295 0 3.77698 0C1.69101 0 2.74439e-06 1.69101 2.74439e-06 3.77698C2.74439e-06 5.86295 1.69101 7.55396 3.77698 7.55396Z" transform="translate(106.835 50)" fill="black"/>
<path d="M1.61871 3.23741C2.51269 3.23741 3.23741 2.51269 3.23741 1.61871C3.23741 0.72472 2.51269 0 1.61871 0C0.724722 0 0 0.72472 0 1.61871C0 2.51269 0.724722 3.23741 1.61871 3.23741Z" transform="translate(96.223 50.8993)" fill="white"/>
<path d="M1.6187 3.23741C2.51269 3.23741 3.23741 2.51269 3.23741 1.61871C3.23741 0.72472 2.51269 0 1.6187 0C0.724718 0 2.74439e-06 0.72472 2.74439e-06 1.61871C2.74439e-06 2.51269 0.724718 3.23741 1.6187 3.23741Z" transform="translate(108.633 50.8993)" fill="white"/>
<path d="M18.1655 0.000340064C13.3094 1.97876 7.91367 6.11545 4.31655 10.0723C1.6187 12.7701 -6.86097e-07 15.6478 -6.86097e-07 18.7054C-6.86097e-07 22.3025 2.15827 25.7198 5.75539 28.7773C6.65467 29.4967 7.01439 30.396 7.01439 31.4752V73.0219C7.01439 75.0003 8.81295 76.619 10.9712 76.619H76.0791C77.518 76.619 78.5971 75.8996 79.8561 75.0003L83.9928 71.0435C83.813 71.0435 18.705 -0.179516 18.1655 0.000340064Z" transform="translate(57.3741 65.6471)" fill="#BA7A3A"/>
<path d="M18.1655 0.000340064C13.3094 1.97876 7.91367 6.11545 4.31655 10.0723C1.6187 12.7701 -6.86097e-07 15.6478 -6.86097e-07 18.7054C-6.86097e-07 22.3025 2.15827 25.7198 5.75539 28.7773C6.65467 29.4967 7.01439 30.396 7.01439 31.4752V73.0219C7.01439 75.0003 8.81295 76.619 10.9712 76.619H76.0791C77.518 76.619 78.5971 75.8996 79.8561 75.0003L83.9928 71.0435C83.813 71.0435 18.705 -0.179516 18.1655 0.000340064Z" transform="translate(57.3741 65.6471)" fill="#BA7A3A"/>
<path d="M87.0504 19.964C87.0504 8.99281 67.6259 -1.37219e-06 43.5252 -1.37219e-06C19.4245 -1.37219e-06 1.37219e-06 8.99281 1.37219e-06 19.964C1.37219e-06 23.5612 2.15828 26.9784 5.7554 30.036C6.65468 30.7554 7.01439 31.6547 7.01439 32.7338V74.2806C7.01439 76.259 8.81295 77.8777 10.9712 77.8777H76.0791C78.2374 77.8777 80.036 76.259 80.036 74.2806V32.554C80.036 31.4748 80.5755 30.5755 81.295 29.8561C84.8921 26.9784 87.0504 23.5612 87.0504 19.964Z" transform="translate(62.4101 59.8921)" fill="#FFE18D"/>
<path d="M1.259 2.15827C1.95432 2.15827 2.51798 1.67513 2.51798 1.07914C2.51798 0.483146 1.95432 2.74439e-06 1.259 2.74439e-06C0.563673 2.74439e-06 0 0.483146 0 1.07914C0 1.67513 0.563673 2.15827 1.259 2.15827Z" transform="translate(88.4892 82.554)" fill="#FFAD54"/>
<path d="M1.43885 2.51798C2.2335 2.51798 2.8777 1.95432 2.8777 1.259C2.8777 0.563673 2.2335 0 1.43885 0C0.644195 0 0 0.563673 0 1.259C0 1.95432 0.644195 2.51798 1.43885 2.51798Z" transform="translate(99.2806 88.4892)" fill="#FFAD54"/>
<path d="M1.25899 2.15827C1.95431 2.15827 2.51799 1.67513 2.51799 1.07914C2.51799 0.483147 1.95431 -2.74439e-06 1.25899 -2.74439e-06C0.563669 -2.74439e-06 -2.74439e-06 0.483147 -2.74439e-06 1.07914C-2.74439e-06 1.67513 0.563669 2.15827 1.25899 2.15827Z" transform="translate(111.691 85.6115)" fill="#FFAD54"/>
<path d="M2.15828 3.95683C3.35026 3.95683 4.31655 3.07107 4.31655 1.97842C4.31655 0.885768 3.35026 2.74439e-06 2.15828 2.74439e-06C0.966297 2.74439e-06 -2.74439e-06 0.885768 -2.74439e-06 1.97842C-2.74439e-06 3.07107 0.966297 3.95683 2.15828 3.95683Z" transform="translate(120.683 100.54)" fill="#FFAD54"/>
<path d="M2.69784 4.67626C4.18782 4.67626 5.39569 3.62945 5.39569 2.33813C5.39569 1.04682 4.18782 -2.74439e-06 2.69784 -2.74439e-06C1.20787 -2.74439e-06 2.74439e-06 1.04682 2.74439e-06 2.33813C2.74439e-06 3.62945 1.20787 4.67626 2.69784 4.67626Z" transform="translate(82.554 103.597)" fill="#FFAD54"/>
<path d="M1.97842 3.59712C3.07107 3.59712 3.95683 2.79188 3.95683 1.79856C3.95683 0.805243 3.07107 0 1.97842 0C0.885768 0 2.74439e-06 0.805243 2.74439e-06 1.79856C2.74439e-06 2.79188 0.885768 3.59712 1.97842 3.59712Z" transform="translate(98.741 113.309)" fill="#FFAD54"/>
<path d="M0.899281 1.79856C1.39594 1.79856 1.79856 1.39594 1.79856 0.899281C1.79856 0.402622 1.39594 0 0.899281 0C0.402622 0 0 0.402622 0 0.899281C0 1.39594 0.402622 1.79856 0.899281 1.79856Z" transform="translate(119.604 118.705)" fill="#FFAD54"/>
<path d="M0.899275 1.79856C1.39593 1.79856 1.79856 1.39594 1.79856 0.899281C1.79856 0.402622 1.39593 0 0.899275 0C0.402616 0 0 0.402622 0 0.899281C0 1.39594 0.402616 1.79856 0.899275 1.79856Z" transform="translate(114.568 126.799)" fill="#FFAD54"/>
<path d="M0.899283 1.79856C1.39594 1.79856 1.79856 1.39594 1.79856 0.899281C1.79856 0.402622 1.39594 0 0.899283 0C0.402624 0 2.74439e-06 0.402622 2.74439e-06 0.899281C2.74439e-06 1.39594 0.402624 1.79856 0.899283 1.79856Z" transform="translate(100.54 105.216)" fill="#FFAD54"/>
<path d="M1.43885 2.51799C2.2335 2.51799 2.8777 1.95431 2.8777 1.25899C2.8777 0.563665 2.2335 0 1.43885 0C0.644193 0 0 0.563665 0 1.25899C0 1.95431 0.644193 2.51799 1.43885 2.51799Z" transform="translate(86.331 124.101)" fill="#FFAD54"/>
<path d="M1.97841 3.59712C3.07106 3.59712 3.95683 2.79188 3.95683 1.79856C3.95683 0.805245 3.07106 0 1.97841 0C0.885765 0 0 0.805245 0 1.79856C0 2.79188 0.885765 3.59712 1.97841 3.59712Z" transform="translate(122.302 74.1007)" fill="#FFAD54"/>
<path d="M1.07914 1.79856C1.67513 1.79856 2.15827 1.39594 2.15827 0.899281C2.15827 0.402622 1.67513 0 1.07914 0C0.483149 0 0 0.402622 0 0.899281C0 1.39594 0.483149 1.79856 1.07914 1.79856Z" transform="translate(103.957 67.446)" fill="#FFAD54"/>
<path d="M1.79856 3.23741C2.79188 3.23741 3.59712 2.51269 3.59712 1.6187C3.59712 0.724718 2.79188 2.74439e-06 1.79856 2.74439e-06C0.805242 2.74439e-06 0 0.724718 0 1.6187C0 2.51269 0.805242 3.23741 1.79856 3.23741Z" transform="translate(72.482 74.4604)" fill="#FFAD54"/>
<path d="M1.61871 2.8777C2.51269 2.8777 3.23742 2.2335 3.23742 1.43885C3.23742 0.644195 2.51269 0 1.61871 0C0.724722 0 0 0.644195 0 1.43885C0 2.2335 0.724722 2.8777 1.61871 2.8777Z" transform="translate(133.094 113.669)" fill="#FFAD54"/>
<path opacity="0.7" d="M17.8254 19.4441L17.6455 17.4657L10.4513 13.329C7.39371 11.5304 5.4153 8.47285 5.23545 4.87572L5.05558 2.35774C5.05558 0.918893 3.79659 -0.160242 2.35774 0.019614C0.918887 0.019614 -0.160242 1.27861 0.019614 2.71746L0.199467 5.23544C0.55918 10.4513 3.43688 15.1275 7.93329 17.8254L17.6455 23.4009V19.4441H17.8254Z" transform="translate(124.801 84.3329)" fill="#FFAD54"/>
<path opacity="0.7" d="M1.97842 13.5679C2.51799 13.2082 6.29497 10.3305 7.73382 3.31614C8.09353 1.87729 7.19425 0.438445 5.57554 0.0787327C4.13669 -0.28098 2.69784 0.618302 2.33813 2.23701C1.79856 4.93485 0.899278 6.55356 -2.74439e-06 7.63269C0.179853 7.81255 0.359715 7.81254 0.539571 7.9924C1.43885 8.71182 1.79856 9.6111 1.79856 10.6902V13.5679H1.97842Z" transform="translate(67.6259 82.1155)" fill="#FFAD54"/>
<path d="M21.5827 0.078734C20.1439 -0.280978 18.705 0.618297 18.3453 2.237C17.2662 7.27297 14.7482 9.07154 14.7482 9.07154L3.95683 16.0859C3.95683 16.0859 3.77698 16.0859 3.77698 16.2658C1.43885 18.0643 0.179857 20.4025 6.86097e-07 22.9205C6.86097e-07 25.2586 1.07914 27.7766 2.8777 29.3953L9.17266 34.791V27.5967L6.47482 25.2586C5.7554 24.719 5.39568 23.8197 5.39568 23.1003C5.39568 22.0212 6.29497 21.3018 6.83454 20.7622L17.6259 13.7478C17.9856 13.3881 21.9424 10.6902 23.5612 3.496C24.1007 1.69744 23.0216 0.25859 21.5827 0.078734Z" transform="translate(55.036 80.6767)" fill="#0078D7"/>
<path d="M5.21583 30.8341C3.23741 29.2154 2.15827 26.6974 2.33813 24.3593C2.33813 21.8413 3.77698 19.5032 6.11511 17.7046C6.11511 17.7046 6.29496 17.7046 6.29496 17.5248L17.0863 10.5104C17.0863 10.5104 19.6043 8.71182 20.6835 3.67585C20.8633 2.41686 22.1223 1.51758 23.3813 1.51758C23.0216 0.798153 22.3022 0.258586 21.5827 0.0787299C20.1439 -0.280982 18.705 0.6183 18.3453 2.237C17.2662 7.27298 14.7482 9.07154 14.7482 9.07154L3.95683 16.0859C3.95683 16.0859 3.77698 16.0859 3.77698 16.2658C1.43885 18.0643 0.179855 20.4025 -1.37219e-06 22.9205C-1.37219e-06 25.2586 1.07914 27.7766 2.8777 29.3953L9.17266 34.791V34.2514L5.21583 30.8341Z" transform="translate(55.3957 80.4968)" fill="#409AE1"/>
<path d="M19.0648 19.7842L9.71224 13.6691C6.83454 11.6906 5.03597 8.45324 5.03597 5.03597V2.51799C5.03597 1.07914 3.95684 0 2.51799 0C1.07914 0 2.74439e-06 1.07914 2.74439e-06 2.51799V5.03597C2.74439e-06 10.2518 2.51798 15.1079 6.83453 17.9856L16.1871 24.1007C17.8058 25.1799 18.705 26.9784 18.705 28.9568C18.705 31.1151 17.446 32.9137 15.8273 33.9928V39.3885C20.3237 38.1295 23.741 33.9928 23.741 28.9568C23.9209 25.1799 22.1223 21.7626 19.0648 19.7842Z" transform="translate(126.619 80.9366)" fill="#409AE1"/>
<path d="M16.0072 21.4029L6.65467 15.2878C3.77697 13.3094 1.97841 10.0719 1.97841 6.65468C1.97841 6.65468 2.15827 3.77698 2.15827 3.41727C2.15827 1.97842 2.69784 1.07914 3.77698 0.539571C3.41726 0.179859 2.8777 -2.74439e-06 2.33814 -2.74439e-06C1.79857 -2.74439e-06 1.25899 0.179855 0.899281 0.359711C0.719425 0.539567 0.539574 0.539568 0.539574 0.719424C0.539574 0.719424 0.539563 0.719422 0.359707 0.899278C0.359707 1.07913 0.179853 1.07914 0.179853 1.25899V1.43885C0.179853 1.61871 0 1.6187 0 1.79856V1.97842C0 2.15827 0 2.33813 0 2.51799V5.03597C0 5.57554 -2.74707e-06 6.11511 0.179853 6.47482C0.179853 6.83453 0.359707 7.19424 0.359707 7.55396C1.07913 11.6906 3.41727 15.4676 7.01439 17.8058L16.3669 23.9209C17.9856 25 18.8849 26.7986 18.8849 28.777C18.8849 30.9352 17.6259 32.7338 16.0072 33.813V39.2086C16.3669 39.0288 16.9065 38.8489 17.2662 38.6691C19.6043 36.6906 21.0432 33.813 21.0432 30.3957C20.8633 26.6187 19.0648 23.3813 16.0072 21.4029Z" transform="translate(126.799 81.1151)" fill="#0078D7"/>
<path d="M0 2.00848C0 2.00848 2.51798 1.46891 2.15827 5.06603L3.77698 0.569632C3.77698 0.569632 1.07914 -1.40879 0 2.00848Z" transform="translate(126.799 80.9052)" fill="#409AE1"/>
<defs>
<radialGradient id="paint0_radial" cx="0.5" cy="0.5" r="0.5" gradientUnits="userSpaceOnUse" gradientTransform="translate(-0.00377698 -0.00377698) scale(131.755)">
<stop offset="4.10814e-07" stop-color="#F6F6F6"/>
<stop offset="0.2014" stop-color="#EFEFEF"/>
<stop offset="0.4985" stop-color="#DBDBDB"/>
<stop offset="0.853" stop-color="#BBBBBB"/>
<stop offset="1" stop-color="#ABABAC"/>
</radialGradient>
<linearGradient id="paint1_linear" x2="1" gradientUnits="userSpaceOnUse" gradientTransform="translate(-0.0919065 -6.23624) scale(97.0624)">
<stop stop-color="#656565"/>
<stop offset="0.1009" stop-color="#535353"/>
<stop offset="0.255" stop-color="#3F3F3F"/>
<stop offset="0.4304" stop-color="#313131"/>
<stop offset="0.6436" stop-color="#292929"/>
<stop offset="1" stop-color="#262626"/>
</linearGradient>
<radialGradient id="paint2_radial" cx="0.5" cy="0.5" r="0.5" gradientUnits="userSpaceOnUse" gradientTransform="translate(-85.8723 22.6728) scale(166.269)">
<stop offset="4.10814e-07" stop-color="#F6F6F6"/>
<stop offset="1" stop-color="#F6F6F6" stop-opacity="0"/>
</radialGradient>
</defs>
</svg>
