<svg width="250" height="250" viewBox="0 0 250 250" fill="none" xmlns="http://www.w3.org/2000/svg">
<circle cx="125" cy="125" r="125" fill="#212121"/>
<path d="M127.117 40.6336L117.386 35H117.382V91.7236H117.386L127.117 86.3426L163.309 65.8376L127.117 40.6336Z" fill="#4CC8EF"/>
<path d="M112.391 92.0938V134.927L75 112.293L112.391 92.0938Z" fill="#A495C7"/>
<path d="M163.309 106.313L117.386 132.199V91.2229L163.313 65.8379V106.313H163.309Z" fill="#03AFE2"/>
<path d="M154.865 117.244L163.996 111.959H164V165.416L154.865 160.132L117.816 138.688L154.865 117.244Z" fill="#4BBFAC"/>
<path d="M117.816 137.609L164 164.948V216L117.816 189.272V137.609Z" fill="#00A387"/>
<path d="M75.3877 112.436V164.528L112.39 185.942V175.664V143.109V134.928L75.3877 112.436Z" fill="#8662AA"/>
</svg>
