<?xml version="1.0" encoding="utf-8"?>
<svg xmlns="http://www.w3.org/2000/svg" xmlns:xlink="http://www.w3.org/1999/xlink">
	<symbol viewBox="0 0 82 24" id="BrandD3Assets" xmlns="http://www.w3.org/2000/svg"><path d="M14.4 24L8 20.32v-5.56l6.4 3.72z" fill="#00a387"/><path d="M6.4 13.84v5.56L0 15.72v-5.56z" fill="#8662aa"/><path d="M8 12.92l6.4-3.68V3.68L8 7.4z" fill="#03afe2"/><path d="M14.4 11.08v7.4L8 14.76z" fill="#4bbfac"/><path d="M6.4 6.44v7.4L0 10.16z" fill="#a495c7"/><path d="M8 0v7.4l6.4-3.72z" fill="#4cc8ef"/><path
		d="M27.353 6.916a2.9 2.9 0 0 0-.967-.684 3.162 3.162 0 0 0-1.294-.253h-3.067V18.7h3.057a3.212 3.212 0 0 0 1.294-.249 2.812 2.812 0 0 0 .967-.683 3.02 3.02 0 0 0 .605-1.011 3.569 3.569 0 0 0 .21-1.231V9.152a3.633 3.633 0 0 0-.205-1.23 2.926 2.926 0 0 0-.6-1.006zm-.914 8.672a1.634 1.634 0 0 1-.332 1.133 1.2 1.2 0 0 1-.927.361h-1.436V7.6h1.445a1.183 1.183 0 0 1 .918.361 1.634 1.634 0 0 1 .332 1.133zm8.941-7.446a3.1 3.1 0 0 1 .044.463v1.68a1.962 1.962 0 0 1-.2.972 1.718 1.718 0 0 1-.435.522 1.473 1.473 0 0 1-.635.264v.1a1.575 1.575 0 0 1 .635.322 1.918 1.918 0 0 1 .435.566 2.088 2.088 0 0 1 .2.987v2.06a3.1 3.1 0 0 1-.044.464 3 3 0 0 1-.156.581 2.905 2.905 0 0 1-.313.6 2.277 2.277 0 0 1-.517.537 2.729 2.729 0 0 1-.762.39 3.2 3.2 0 0 1-1.04.152 2.961 2.961 0 0 1-1.035-.161 2.373 2.373 0 0 1-.723-.415 2.063 2.063 0 0 1-.464-.567 3.293 3.293 0 0 1-.264-.615 3.249 3.249 0 0 1-.122-.562 3.946 3.946 0 0 1-.029-.405v-.615h1.719v.547a2.052 2.052 0 0 0 .039.381 1.083 1.083 0 0 0 .151.381.932.932 0 0 0 .308.293.98.98 0 0 0 .508.117 1.042 1.042 0 0 0 .722-.274 1.143 1.143 0 0 0 .3-.888v-2.14a.887.887 0 0 0-.083-.4.9.9 0 0 0-.22-.288.936.936 0 0 0-.3-.175.974.974 0 0 0-.332-.059h-.625V11.34h.625a1 1 0 0 0 .332-.059.921.921 0 0 0 .3-.176.891.891 0 0 0 .22-.288.88.88 0 0 0 .083-.395V8.664a1.147 1.147 0 0 0-.3-.889 1.041 1.041 0 0 0-.722-.275.98.98 0 0 0-.508.117.922.922 0 0 0-.308.293 1.068 1.068 0 0 0-.151.381 2.052 2.052 0 0 0-.039.381v.547h-1.719v-.614a3.984 3.984 0 0 1 .029-.405 3.24 3.24 0 0 1 .122-.561 3.33 3.33 0 0 1 .264-.616 2.059 2.059 0 0 1 .464-.566 2.352 2.352 0 0 1 .723-.415 2.961 2.961 0 0 1 1.035-.161 3.226 3.226 0 0 1 1.04.151 2.7 2.7 0 0 1 .762.391 2.259 2.259 0 0 1 .517.537 2.905 2.905 0 0 1 .313.6 2.98 2.98 0 0 1 .156.582zm9.12-2.163L41.635 18.7h1.738l.5-2.783h2.608l.507 2.783h1.739L45.863 5.979zm-.312 8.32l.9-4.951h.2l.889 4.951zm7.421-2.515a1.426 1.426 0 0 0-.048.366.973.973 0 0 0 .131.523 1.2 1.2 0 0 0 .347.356 2.281 2.281 0 0 0 .488.249c.183.069.365.132.547.191a4.833 4.833 0 0 1 .733.307 2.932 2.932 0 0 1 .718.523 2.762 2.762 0 0 1 .546.781 2.482 2.482 0 0 1 .22 1.084 2.772 2.772 0 0 1-.181 1 2.537 2.537 0 0 1-.522.84 2.439 2.439 0 0 1-.855.581 2.993 2.993 0 0 1-1.166.215 3.085 3.085 0 0 1-1.338-.254 2.3 2.3 0 0 1-.835-.65 2.346 2.346 0 0 1-.43-.878 3.905 3.905 0 0 1-.122-.953h1.719a1.177 1.177 0 0 0 .268.811 1.186 1.186 0 0 0 1.24.215.8.8 0 0 0 .293-.235.912.912 0 0 0 .162-.327 1.414 1.414 0 0 0 .048-.366.943.943 0 0 0-.141-.522 1.388 1.388 0 0 0-.357-.376 1.988 1.988 0 0 0-.473-.254 6.663 6.663 0 0 0-.493-.166 4.915 4.915 0 0 1-.806-.318 2.786 2.786 0 0 1-.728-.517 2.537 2.537 0 0 1-.527-.772 2.623 2.623 0 0 1-.2-1.089 2.776 2.776 0 0 1 .181-1 2.543 2.543 0 0 1 .522-.839 2.432 2.432 0 0 1 .85-.581 2.97 2.97 0 0 1 1.172-.215 3.068 3.068 0 0 1 1.337.254 2.284 2.284 0 0 1 .835.649 2.358 2.358 0 0 1 .43.879 3.9 3.9 0 0 1 .122.952h-1.728a1.175 1.175 0 0 0-.268-.81 1.186 1.186 0 0 0-1.24-.215.793.793 0 0 0-.293.234.928.928 0 0 0-.162.327zm6.583 0a1.385 1.385 0 0 0-.049.366.964.964 0 0 0 .132.523 1.184 1.184 0 0 0 .346.356 2.281 2.281 0 0 0 .488.249c.183.069.365.132.547.191a4.833 4.833 0 0 1 .733.307 2.914 2.914 0 0 1 .718.523 2.762 2.762 0 0 1 .546.781 2.482 2.482 0 0 1 .22 1.084 2.772 2.772 0 0 1-.181 1 2.537 2.537 0 0 1-.522.84 2.444 2.444 0 0 1-.854.581 3 3 0 0 1-1.167.215 3.085 3.085 0 0 1-1.338-.254 2.3 2.3 0 0 1-.835-.65 2.346 2.346 0 0 1-.43-.878 3.905 3.905 0 0 1-.122-.953h1.719a1.182 1.182 0 0 0 .268.811 1.186 1.186 0 0 0 1.24.215.8.8 0 0 0 .293-.235.912.912 0 0 0 .162-.327 1.414 1.414 0 0 0 .048-.366.935.935 0 0 0-.141-.522 1.388 1.388 0 0 0-.357-.376 1.988 1.988 0 0 0-.473-.254 6.663 6.663 0 0 0-.493-.166 4.915 4.915 0 0 1-.806-.318 2.786 2.786 0 0 1-.728-.517 2.555 2.555 0 0 1-.527-.772 2.623 2.623 0 0 1-.2-1.089 2.776 2.776 0 0 1 .181-1 2.56 2.56 0 0 1 .522-.839 2.432 2.432 0 0 1 .85-.581 2.974 2.974 0 0 1 1.172-.215 3.068 3.068 0 0 1 1.337.254 2.284 2.284 0 0 1 .835.649 2.358 2.358 0 0 1 .43.879 3.9 3.9 0 0 1 .122.952H60.15a1.175 1.175 0 0 0-.268-.81 1.186 1.186 0 0 0-1.24-.215.793.793 0 0 0-.293.234.909.909 0 0 0-.161.327zm9.829-1.323a2.275 2.275 0 0 0-.835-.684 3.535 3.535 0 0 0-2.676 0 2.286 2.286 0 0 0-.835.679 2.513 2.513 0 0 0-.43.938 4.616 4.616 0 0 0-.122 1.049v3.428a4.618 4.618 0 0 0 .122 1.05 2.509 2.509 0 0 0 .43.937 2.286 2.286 0 0 0 .835.679 2.982 2.982 0 0 0 1.338.264 3.26 3.26 0 0 0 1.338-.239 2.27 2.27 0 0 0 .835-.616 2.181 2.181 0 0 0 .429-.844 3.728 3.728 0 0 0 .122-.938H66.85a1.271 1.271 0 0 1-.24.811.919.919 0 0 1-.766.3.865.865 0 0 1-.767-.346 1.679 1.679 0 0 1-.239-.962v-1.151h3.73v-2.373a4.578 4.578 0 0 0-.122-1.04 2.559 2.559 0 0 0-.429-.942zm-1.171 2.881h-2.012v-1a1.679 1.679 0 0 1 .239-.962 1.015 1.015 0 0 1 1.533 0 1.673 1.673 0 0 1 .24.957zm5.224-3.731h1.26v1.621h-1.26v5.2a1.36 1.36 0 0 0 .02.224.59.59 0 0 0 .078.215.47.47 0 0 0 .151.156.436.436 0 0 0 .24.059h.771V18.7h-.967c-.091 0-.2 0-.337-.01a1.774 1.774 0 0 1-.42-.073 1.825 1.825 0 0 1-.444-.2 1.384 1.384 0 0 1-.405-.391 2.127 2.127 0 0 1-.293-.644 3.5 3.5 0 0 1-.113-.957v-5.2h-.878V9.611h.878v-2.5h1.719zm7.739 5.469a2.482 2.482 0 0 1 .22 1.084 2.793 2.793 0 0 1-.18 1 2.556 2.556 0 0 1-.523.84 2.435 2.435 0 0 1-.854.581 3 3 0 0 1-1.167.215 3.088 3.088 0 0 1-1.338-.254 2.3 2.3 0 0 1-.835-.65 2.346 2.346 0 0 1-.43-.878 3.905 3.905 0 0 1-.122-.953H76.3a1.182 1.182 0 0 0 .268.811 1.009 1.009 0 0 0 .8.3 1.023 1.023 0 0 0 .445-.088.81.81 0 0 0 .292-.235.912.912 0 0 0 .162-.327 1.414 1.414 0 0 0 .048-.366.935.935 0 0 0-.141-.522 1.388 1.388 0 0 0-.357-.376 1.988 1.988 0 0 0-.473-.254 6.663 6.663 0 0 0-.493-.166 4.915 4.915 0 0 1-.806-.318 2.786 2.786 0 0 1-.728-.517 2.555 2.555 0 0 1-.527-.772 2.623 2.623 0 0 1-.2-1.089 2.8 2.8 0 0 1 .181-1 2.56 2.56 0 0 1 .522-.839 2.432 2.432 0 0 1 .85-.581 2.974 2.974 0 0 1 1.172-.215 3.068 3.068 0 0 1 1.337.254 2.284 2.284 0 0 1 .835.649 2.343 2.343 0 0 1 .43.879 3.9 3.9 0 0 1 .122.952h-1.725a1.175 1.175 0 0 0-.268-.81 1.186 1.186 0 0 0-1.24-.215.8.8 0 0 0-.293.234.926.926 0 0 0-.161.327 1.385 1.385 0 0 0-.049.366.964.964 0 0 0 .132.523 1.184 1.184 0 0 0 .346.356 2.266 2.266 0 0 0 .489.249c.182.069.364.132.546.191a4.833 4.833 0 0 1 .733.307 2.914 2.914 0 0 1 .718.523 2.762 2.762 0 0 1 .546.784z"
		fill="#212121"/></symbol>
	<symbol viewBox="0 0 82 24" id="BrandD3Assets_white" xmlns="http://www.w3.org/2000/svg"><path d="M14.4 24L8 20.32v-5.56l6.4 3.72z" fill="#00a387"/><path d="M6.4 13.84v5.56L0 15.72v-5.56z" fill="#8662aa"/><path d="M8 12.92l6.4-3.68V3.68L8 7.4z" fill="#03afe2"/><path d="M14.4 11.08v7.4L8 14.76z" fill="#4bbfac"/><path d="M6.4 6.44v7.4L0 10.16z" fill="#a495c7"/><path d="M8 0v7.4l6.4-3.72z" fill="#4cc8ef"/><path
		d="M27.353 6.916a2.9 2.9 0 0 0-.967-.684 3.162 3.162 0 0 0-1.294-.253h-3.067V18.7h3.057a3.212 3.212 0 0 0 1.294-.249 2.812 2.812 0 0 0 .967-.683 3.02 3.02 0 0 0 .605-1.011 3.569 3.569 0 0 0 .21-1.231V9.152a3.633 3.633 0 0 0-.205-1.23 2.926 2.926 0 0 0-.6-1.006zm-.914 8.672a1.634 1.634 0 0 1-.332 1.133 1.2 1.2 0 0 1-.927.361h-1.436V7.6h1.445a1.183 1.183 0 0 1 .918.361 1.634 1.634 0 0 1 .332 1.133zm8.941-7.446a3.1 3.1 0 0 1 .044.463v1.68a1.962 1.962 0 0 1-.2.972 1.718 1.718 0 0 1-.435.522 1.473 1.473 0 0 1-.635.264v.1a1.575 1.575 0 0 1 .635.322 1.918 1.918 0 0 1 .435.566 2.088 2.088 0 0 1 .2.987v2.06a3.1 3.1 0 0 1-.044.464 3 3 0 0 1-.156.581 2.905 2.905 0 0 1-.313.6 2.277 2.277 0 0 1-.517.537 2.729 2.729 0 0 1-.762.39 3.2 3.2 0 0 1-1.04.152 2.961 2.961 0 0 1-1.035-.161 2.373 2.373 0 0 1-.723-.415 2.063 2.063 0 0 1-.464-.567 3.293 3.293 0 0 1-.264-.615 3.249 3.249 0 0 1-.122-.562 3.946 3.946 0 0 1-.029-.405v-.615h1.719v.547a2.052 2.052 0 0 0 .039.381 1.083 1.083 0 0 0 .151.381.932.932 0 0 0 .308.293.98.98 0 0 0 .508.117 1.042 1.042 0 0 0 .722-.274 1.143 1.143 0 0 0 .3-.888v-2.14a.887.887 0 0 0-.083-.4.9.9 0 0 0-.22-.288.936.936 0 0 0-.3-.175.974.974 0 0 0-.332-.059h-.625V11.34h.625a1 1 0 0 0 .332-.059.921.921 0 0 0 .3-.176.891.891 0 0 0 .22-.288.88.88 0 0 0 .083-.395V8.664a1.147 1.147 0 0 0-.3-.889 1.041 1.041 0 0 0-.722-.275.98.98 0 0 0-.508.117.922.922 0 0 0-.308.293 1.068 1.068 0 0 0-.151.381 2.052 2.052 0 0 0-.039.381v.547h-1.719v-.614a3.984 3.984 0 0 1 .029-.405 3.24 3.24 0 0 1 .122-.561 3.33 3.33 0 0 1 .264-.616 2.059 2.059 0 0 1 .464-.566 2.352 2.352 0 0 1 .723-.415 2.961 2.961 0 0 1 1.035-.161 3.226 3.226 0 0 1 1.04.151 2.7 2.7 0 0 1 .762.391 2.259 2.259 0 0 1 .517.537 2.905 2.905 0 0 1 .313.6 2.98 2.98 0 0 1 .156.582zm9.12-2.163L41.635 18.7h1.738l.5-2.783h2.608l.507 2.783h1.739L45.863 5.979zm-.312 8.32l.9-4.951h.2l.889 4.951zm7.421-2.515a1.426 1.426 0 0 0-.048.366.973.973 0 0 0 .131.523 1.2 1.2 0 0 0 .347.356 2.281 2.281 0 0 0 .488.249c.183.069.365.132.547.191a4.833 4.833 0 0 1 .733.307 2.932 2.932 0 0 1 .718.523 2.762 2.762 0 0 1 .546.781 2.482 2.482 0 0 1 .22 1.084 2.772 2.772 0 0 1-.181 1 2.537 2.537 0 0 1-.522.84 2.439 2.439 0 0 1-.855.581 2.993 2.993 0 0 1-1.166.215 3.085 3.085 0 0 1-1.338-.254 2.3 2.3 0 0 1-.835-.65 2.346 2.346 0 0 1-.43-.878 3.905 3.905 0 0 1-.122-.953h1.719a1.177 1.177 0 0 0 .268.811 1.186 1.186 0 0 0 1.24.215.8.8 0 0 0 .293-.235.912.912 0 0 0 .162-.327 1.414 1.414 0 0 0 .048-.366.943.943 0 0 0-.141-.522 1.388 1.388 0 0 0-.357-.376 1.988 1.988 0 0 0-.473-.254 6.663 6.663 0 0 0-.493-.166 4.915 4.915 0 0 1-.806-.318 2.786 2.786 0 0 1-.728-.517 2.537 2.537 0 0 1-.527-.772 2.623 2.623 0 0 1-.2-1.089 2.776 2.776 0 0 1 .181-1 2.543 2.543 0 0 1 .522-.839 2.432 2.432 0 0 1 .85-.581 2.97 2.97 0 0 1 1.172-.215 3.068 3.068 0 0 1 1.337.254 2.284 2.284 0 0 1 .835.649 2.358 2.358 0 0 1 .43.879 3.9 3.9 0 0 1 .122.952h-1.728a1.175 1.175 0 0 0-.268-.81 1.186 1.186 0 0 0-1.24-.215.793.793 0 0 0-.293.234.928.928 0 0 0-.162.327zm6.583 0a1.385 1.385 0 0 0-.049.366.964.964 0 0 0 .132.523 1.184 1.184 0 0 0 .346.356 2.281 2.281 0 0 0 .488.249c.183.069.365.132.547.191a4.833 4.833 0 0 1 .733.307 2.914 2.914 0 0 1 .718.523 2.762 2.762 0 0 1 .546.781 2.482 2.482 0 0 1 .22 1.084 2.772 2.772 0 0 1-.181 1 2.537 2.537 0 0 1-.522.84 2.444 2.444 0 0 1-.854.581 3 3 0 0 1-1.167.215 3.085 3.085 0 0 1-1.338-.254 2.3 2.3 0 0 1-.835-.65 2.346 2.346 0 0 1-.43-.878 3.905 3.905 0 0 1-.122-.953h1.719a1.182 1.182 0 0 0 .268.811 1.186 1.186 0 0 0 1.24.215.8.8 0 0 0 .293-.235.912.912 0 0 0 .162-.327 1.414 1.414 0 0 0 .048-.366.935.935 0 0 0-.141-.522 1.388 1.388 0 0 0-.357-.376 1.988 1.988 0 0 0-.473-.254 6.663 6.663 0 0 0-.493-.166 4.915 4.915 0 0 1-.806-.318 2.786 2.786 0 0 1-.728-.517 2.555 2.555 0 0 1-.527-.772 2.623 2.623 0 0 1-.2-1.089 2.776 2.776 0 0 1 .181-1 2.56 2.56 0 0 1 .522-.839 2.432 2.432 0 0 1 .85-.581 2.974 2.974 0 0 1 1.172-.215 3.068 3.068 0 0 1 1.337.254 2.284 2.284 0 0 1 .835.649 2.358 2.358 0 0 1 .43.879 3.9 3.9 0 0 1 .122.952H60.15a1.175 1.175 0 0 0-.268-.81 1.186 1.186 0 0 0-1.24-.215.793.793 0 0 0-.293.234.909.909 0 0 0-.161.327zm9.829-1.323a2.275 2.275 0 0 0-.835-.684 3.535 3.535 0 0 0-2.676 0 2.286 2.286 0 0 0-.835.679 2.513 2.513 0 0 0-.43.938 4.616 4.616 0 0 0-.122 1.049v3.428a4.618 4.618 0 0 0 .122 1.05 2.509 2.509 0 0 0 .43.937 2.286 2.286 0 0 0 .835.679 2.982 2.982 0 0 0 1.338.264 3.26 3.26 0 0 0 1.338-.239 2.27 2.27 0 0 0 .835-.616 2.181 2.181 0 0 0 .429-.844 3.728 3.728 0 0 0 .122-.938H66.85a1.271 1.271 0 0 1-.24.811.919.919 0 0 1-.766.3.865.865 0 0 1-.767-.346 1.679 1.679 0 0 1-.239-.962v-1.151h3.73v-2.373a4.578 4.578 0 0 0-.122-1.04 2.559 2.559 0 0 0-.429-.942zm-1.171 2.881h-2.012v-1a1.679 1.679 0 0 1 .239-.962 1.015 1.015 0 0 1 1.533 0 1.673 1.673 0 0 1 .24.957zm5.224-3.731h1.26v1.621h-1.26v5.2a1.36 1.36 0 0 0 .02.224.59.59 0 0 0 .078.215.47.47 0 0 0 .151.156.436.436 0 0 0 .24.059h.771V18.7h-.967c-.091 0-.2 0-.337-.01a1.774 1.774 0 0 1-.42-.073 1.825 1.825 0 0 1-.444-.2 1.384 1.384 0 0 1-.405-.391 2.127 2.127 0 0 1-.293-.644 3.5 3.5 0 0 1-.113-.957v-5.2h-.878V9.611h.878v-2.5h1.719zm7.739 5.469a2.482 2.482 0 0 1 .22 1.084 2.793 2.793 0 0 1-.18 1 2.556 2.556 0 0 1-.523.84 2.435 2.435 0 0 1-.854.581 3 3 0 0 1-1.167.215 3.088 3.088 0 0 1-1.338-.254 2.3 2.3 0 0 1-.835-.65 2.346 2.346 0 0 1-.43-.878 3.905 3.905 0 0 1-.122-.953H76.3a1.182 1.182 0 0 0 .268.811 1.009 1.009 0 0 0 .8.3 1.023 1.023 0 0 0 .445-.088.81.81 0 0 0 .292-.235.912.912 0 0 0 .162-.327 1.414 1.414 0 0 0 .048-.366.935.935 0 0 0-.141-.522 1.388 1.388 0 0 0-.357-.376 1.988 1.988 0 0 0-.473-.254 6.663 6.663 0 0 0-.493-.166 4.915 4.915 0 0 1-.806-.318 2.786 2.786 0 0 1-.728-.517 2.555 2.555 0 0 1-.527-.772 2.623 2.623 0 0 1-.2-1.089 2.8 2.8 0 0 1 .181-1 2.56 2.56 0 0 1 .522-.839 2.432 2.432 0 0 1 .85-.581 2.974 2.974 0 0 1 1.172-.215 3.068 3.068 0 0 1 1.337.254 2.284 2.284 0 0 1 .835.649 2.343 2.343 0 0 1 .43.879 3.9 3.9 0 0 1 .122.952h-1.725a1.175 1.175 0 0 0-.268-.81 1.186 1.186 0 0 0-1.24-.215.8.8 0 0 0-.293.234.926.926 0 0 0-.161.327 1.385 1.385 0 0 0-.049.366.964.964 0 0 0 .132.523 1.184 1.184 0 0 0 .346.356 2.266 2.266 0 0 0 .489.249c.182.069.364.132.546.191a4.833 4.833 0 0 1 .733.307 2.914 2.914 0 0 1 .718.523 2.762 2.762 0 0 1 .546.784z"
		fill="#fff"/></symbol>
	<symbol viewBox="0 0 80 24" id="BrandD3Studio" xmlns="http://www.w3.org/2000/svg"><path d="M14.4 24L8 20.32v-5.56l6.4 3.72z" fill="#00a387"/><path d="M6.4 13.84v5.56L0 15.72v-5.56z" fill="#8662aa"/><path d="M8 12.92l6.4-3.68V3.68L8 7.4z" fill="#03afe2"/><path d="M14.4 11.08v7.4L8 14.76z" fill="#4bbfac"/><path d="M6.4 6.44v7.4L0 10.16z" fill="#a495c7"/><path d="M8 0v7.4l6.4-3.72z" fill="#4cc8ef"/><path
		d="M27.353 6.916a2.9 2.9 0 0 0-.967-.684 3.162 3.162 0 0 0-1.294-.253h-3.067V18.7h3.057a3.212 3.212 0 0 0 1.294-.249 2.8 2.8 0 0 0 .967-.683 3.01 3.01 0 0 0 .605-1.011 3.565 3.565 0 0 0 .21-1.231V9.152a3.633 3.633 0 0 0-.205-1.23 2.926 2.926 0 0 0-.6-1.006zm-.914 8.672a1.632 1.632 0 0 1-.332 1.133 1.194 1.194 0 0 1-.927.361h-1.436V7.6h1.445a1.183 1.183 0 0 1 .918.361 1.634 1.634 0 0 1 .332 1.133zm8.941-7.446a3.1 3.1 0 0 1 .044.463v1.68a1.962 1.962 0 0 1-.2.972 1.718 1.718 0 0 1-.435.522 1.473 1.473 0 0 1-.635.264v.1a1.575 1.575 0 0 1 .635.322 1.918 1.918 0 0 1 .435.566 2.088 2.088 0 0 1 .2.987v2.06a3.116 3.116 0 0 1-.044.464 2.98 2.98 0 0 1-.156.581 2.905 2.905 0 0 1-.313.6 2.24 2.24 0 0 1-.517.537 2.677 2.677 0 0 1-.762.39 3.2 3.2 0 0 1-1.04.152 2.961 2.961 0 0 1-1.035-.161 2.352 2.352 0 0 1-.723-.415 2.048 2.048 0 0 1-.464-.567 3.293 3.293 0 0 1-.264-.615 3.23 3.23 0 0 1-.122-.562 3.928 3.928 0 0 1-.029-.405v-.615h1.719v.547a2.052 2.052 0 0 0 .039.381 1.083 1.083 0 0 0 .151.381.932.932 0 0 0 .308.293.98.98 0 0 0 .508.117 1.037 1.037 0 0 0 .722-.274 1.142 1.142 0 0 0 .3-.888v-2.14a.89.89 0 0 0-.083-.4.9.9 0 0 0-.22-.288.936.936 0 0 0-.3-.175.974.974 0 0 0-.332-.059h-.625V11.34h.625a1 1 0 0 0 .332-.059.921.921 0 0 0 .3-.176.891.891 0 0 0 .22-.288.88.88 0 0 0 .083-.395V8.664a1.147 1.147 0 0 0-.3-.889 1.041 1.041 0 0 0-.722-.275.98.98 0 0 0-.508.117.922.922 0 0 0-.308.293 1.068 1.068 0 0 0-.151.381 2.052 2.052 0 0 0-.039.381v.547h-1.719v-.614a3.984 3.984 0 0 1 .029-.405 3.24 3.24 0 0 1 .122-.561 3.33 3.33 0 0 1 .264-.616 2.059 2.059 0 0 1 .464-.566 2.352 2.352 0 0 1 .723-.415 2.961 2.961 0 0 1 1.035-.161 3.226 3.226 0 0 1 1.04.151 2.7 2.7 0 0 1 .762.391 2.259 2.259 0 0 1 .517.537 2.905 2.905 0 0 1 .313.6 2.98 2.98 0 0 1 .156.582zm12.309-.318a3.479 3.479 0 0 1 .211 1.231v.5h-1.714V9a1.882 1.882 0 0 0-.108-.664 1.267 1.267 0 0 0-.3-.469 1.185 1.185 0 0 0-.444-.273 1.651 1.651 0 0 0-.547-.088 1.718 1.718 0 0 0-.561.088 1.177 1.177 0 0 0-.45.273 1.28 1.28 0 0 0-.3.469 1.883 1.883 0 0 0-.103.664v.879a1.923 1.923 0 0 0 .054.469.987.987 0 0 0 .224.41 1.821 1.821 0 0 0 .489.371 5.66 5.66 0 0 0 .844.361q.7.244 1.245.469a2.7 2.7 0 0 1 .914.606 2.464 2.464 0 0 1 .566 1.005 5.747 5.747 0 0 1 .2 1.661 5 5 0 0 1-.229 1.569 3.048 3.048 0 0 1-.635 1.118 2.554 2.554 0 0 1-.991.664 3.6 3.6 0 0 1-1.284.22 3.281 3.281 0 0 1-1.3-.249 2.824 2.824 0 0 1-.982-.684 3.057 3.057 0 0 1-.615-1.011 3.492 3.492 0 0 1-.215-1.23v-.5h1.719v.557a1.887 1.887 0 0 0 .107.664 1.268 1.268 0 0 0 .3.468 1.191 1.191 0 0 0 .445.274 1.673 1.673 0 0 0 .547.088 1.75 1.75 0 0 0 .561-.088 1.176 1.176 0 0 0 .449-.274 1.255 1.255 0 0 0 .3-.468 1.886 1.886 0 0 0 .108-.664v-.879a2.056 2.056 0 0 0-.054-.479 1.064 1.064 0 0 0-.22-.425 1.761 1.761 0 0 0-.488-.381 5.041 5.041 0 0 0-.85-.356c-.3-.1-.589-.194-.849-.288a5 5 0 0 1-.718-.322 2.576 2.576 0 0 1-.576-.43 2.246 2.246 0 0 1-.425-.61 3.28 3.28 0 0 1-.264-.865 7.109 7.109 0 0 1-.088-1.2 4.966 4.966 0 0 1 .225-1.572 3.02 3.02 0 0 1 .635-1.118 2.539 2.539 0 0 1 .991-.664 3.594 3.594 0 0 1 1.284-.22 3.176 3.176 0 0 1 1.3.254 2.985 2.985 0 0 1 .981.683 2.941 2.941 0 0 1 .611 1.011zm3.6 1.787h1.26v1.621h-1.26v5.2a1.36 1.36 0 0 0 .02.224.584.584 0 0 0 .078.215.452.452 0 0 0 .151.156.434.434 0 0 0 .239.059h.772V18.7h-.967c-.091 0-.2 0-.337-.01a1.725 1.725 0 0 1-.42-.073 1.788 1.788 0 0 1-.444-.2 1.387 1.387 0 0 1-.406-.391 2.115 2.115 0 0 1-.292-.644 3.458 3.458 0 0 1-.113-.957v-5.2h-.87V9.611h.879v-2.5h1.719zm6.582 0h1.719V18.7h-1.715v-.762h-.1a1.5 1.5 0 0 1-.381.411 1.928 1.928 0 0 1-.5.278 2.024 2.024 0 0 1-.748.122 1.9 1.9 0 0 1-.922-.2 1.758 1.758 0 0 1-.62-.562 2.343 2.343 0 0 1-.352-.849 5.112 5.112 0 0 1-.107-1.079V9.611h1.718v6.231a1.7 1.7 0 0 0 .24 1.045.849.849 0 0 0 .7.293 1.155 1.155 0 0 0 .444-.083 1.578 1.578 0 0 0 .63-.474zm7.041.762h-.1a2.132 2.132 0 0 0-.439-.43 2.551 2.551 0 0 0-.542-.3 1.883 1.883 0 0 0-.728-.132 3.822 3.822 0 0 0-.586.053 1.226 1.226 0 0 0-.629.323 2.027 2.027 0 0 0-.5.83 4.768 4.768 0 0 0-.2 1.577v3.711a4.809 4.809 0 0 0 .2 1.582 2.029 2.029 0 0 0 .5.835 1.224 1.224 0 0 0 .629.322 3.712 3.712 0 0 0 .586.054 2.006 2.006 0 0 0 .728-.122 2.85 2.85 0 0 0 .542-.269 2.159 2.159 0 0 0 .439-.4h.1v.693h1.719V5.979h-1.715zm0 6.318a1.8 1.8 0 0 1-.3.245 1.411 1.411 0 0 1-.332.17 1.181 1.181 0 0 1-.42.074.916.916 0 0 1-.5-.122.886.886 0 0 1-.293-.3 1.034 1.034 0 0 1-.131-.381 2.584 2.584 0 0 1-.03-.371v-3.7a2.573 2.573 0 0 1 .03-.371 1.034 1.034 0 0 1 .131-.381.886.886 0 0 1 .293-.3.916.916 0 0 1 .5-.122 1.067 1.067 0 0 1 .42.083 1.432 1.432 0 0 1 .332.19 1.707 1.707 0 0 1 .3.274zm3.656-10.712h1.719V7.7h-1.719zm0 3.632h1.719V18.7h-1.719zm8.863 1.783a2.513 2.513 0 0 0-.43-.938 2.286 2.286 0 0 0-.835-.679 3.535 3.535 0 0 0-2.676 0 2.294 2.294 0 0 0-.835.679 2.511 2.511 0 0 0-.429.938 4.616 4.616 0 0 0-.122 1.049v3.428a4.618 4.618 0 0 0 .122 1.05 2.5 2.5 0 0 0 .429.937 2.284 2.284 0 0 0 .835.679 3.523 3.523 0 0 0 2.676 0 2.276 2.276 0 0 0 .834-.679 2.5 2.5 0 0 0 .43-.937 4.618 4.618 0 0 0 .122-1.05v-3.428a4.616 4.616 0 0 0-.121-1.049zm-1.6 4.477a1.677 1.677 0 0 1-.239.962 1.02 1.02 0 0 1-1.533 0 1.669 1.669 0 0 1-.24-.962v-3.428a1.671 1.671 0 0 1 .24-.962 1.022 1.022 0 0 1 1.533 0 1.679 1.679 0 0 1 .239.962z"
		fill="#fff"/></symbol>
	<symbol viewBox="0 0 24 24" id="BrandD3Studio_avatar" xmlns="http://www.w3.org/2000/svg"><circle cx="12" cy="12" r="12" fill="#212121"/><path d="M16.8 20l-4.267-2.453V13.84l4.267 2.48z" fill="#00a387"/><path d="M11.467 13.227v3.706L7.2 14.48v-3.707z" fill="#8662aa"/><path d="M12.533 12.613L16.8 10.16V6.453l-4.267 2.48z" fill="#03afe2"/><path d="M16.8 11.387v4.933l-4.267-2.48z" fill="#4bbfac"/><path d="M11.467 8.293v4.934L7.2 10.773z" fill="#a495c7"/><path d="M12.533 4v4.933l4.267-2.48z" fill="#4cc8ef"/></symbol>
	<symbol viewBox="0 0 24 24" id="BrandD3Studio_mark" xmlns="http://www.w3.org/2000/svg"><path d="M18.16 24l-6.4-3.68v-5.56l6.4 3.72z" fill="#00a387"/><path d="M10.16 13.84v5.56l-6.4-3.68v-5.56z" fill="#8662aa"/><path d="M11.76 12.92l6.4-3.68V3.68l-6.4 3.72z" fill="#03afe2"/><path d="M18.16 11.08v7.4l-6.4-3.72z" fill="#4bbfac"/><path d="M10.16 6.44v7.4l-6.4-3.68z" fill="#a495c7"/><path d="M11.76 0v7.4l6.4-3.72z" fill="#4cc8ef"/></symbol>
	<symbol viewBox="0 0 80 24" id="BrandD3Studio_white" xmlns="http://www.w3.org/2000/svg"><path d="M14.4 24L8 20.32v-5.56l6.4 3.72z" fill="#00a387"/><path d="M6.4 13.84v5.56L0 15.72v-5.56z" fill="#8662aa"/><path d="M8 12.92l6.4-3.68V3.68L8 7.4z" fill="#03afe2"/><path d="M14.4 11.08v7.4L8 14.76z" fill="#4bbfac"/><path d="M6.4 6.44v7.4L0 10.16z" fill="#a495c7"/><path d="M8 0v7.4l6.4-3.72z" fill="#4cc8ef"/><path
		d="M27.353 6.916a2.9 2.9 0 0 0-.967-.684 3.162 3.162 0 0 0-1.294-.253h-3.067V18.7h3.057a3.212 3.212 0 0 0 1.294-.249 2.8 2.8 0 0 0 .967-.683 3.01 3.01 0 0 0 .605-1.011 3.565 3.565 0 0 0 .21-1.231V9.152a3.633 3.633 0 0 0-.205-1.23 2.926 2.926 0 0 0-.6-1.006zm-.914 8.672a1.632 1.632 0 0 1-.332 1.133 1.194 1.194 0 0 1-.927.361h-1.436V7.6h1.445a1.183 1.183 0 0 1 .918.361 1.634 1.634 0 0 1 .332 1.133zm8.941-7.446a3.1 3.1 0 0 1 .044.463v1.68a1.962 1.962 0 0 1-.2.972 1.718 1.718 0 0 1-.435.522 1.473 1.473 0 0 1-.635.264v.1a1.575 1.575 0 0 1 .635.322 1.918 1.918 0 0 1 .435.566 2.088 2.088 0 0 1 .2.987v2.06a3.116 3.116 0 0 1-.044.464 2.98 2.98 0 0 1-.156.581 2.905 2.905 0 0 1-.313.6 2.24 2.24 0 0 1-.517.537 2.677 2.677 0 0 1-.762.39 3.2 3.2 0 0 1-1.04.152 2.961 2.961 0 0 1-1.035-.161 2.352 2.352 0 0 1-.723-.415 2.048 2.048 0 0 1-.464-.567 3.293 3.293 0 0 1-.264-.615 3.23 3.23 0 0 1-.122-.562 3.928 3.928 0 0 1-.029-.405v-.615h1.719v.547a2.052 2.052 0 0 0 .039.381 1.083 1.083 0 0 0 .151.381.932.932 0 0 0 .308.293.98.98 0 0 0 .508.117 1.037 1.037 0 0 0 .722-.274 1.142 1.142 0 0 0 .3-.888v-2.14a.89.89 0 0 0-.083-.4.9.9 0 0 0-.22-.288.936.936 0 0 0-.3-.175.974.974 0 0 0-.332-.059h-.625V11.34h.625a1 1 0 0 0 .332-.059.921.921 0 0 0 .3-.176.891.891 0 0 0 .22-.288.88.88 0 0 0 .083-.395V8.664a1.147 1.147 0 0 0-.3-.889 1.041 1.041 0 0 0-.722-.275.98.98 0 0 0-.508.117.922.922 0 0 0-.308.293 1.068 1.068 0 0 0-.151.381 2.052 2.052 0 0 0-.039.381v.547h-1.719v-.614a3.984 3.984 0 0 1 .029-.405 3.24 3.24 0 0 1 .122-.561 3.33 3.33 0 0 1 .264-.616 2.059 2.059 0 0 1 .464-.566 2.352 2.352 0 0 1 .723-.415 2.961 2.961 0 0 1 1.035-.161 3.226 3.226 0 0 1 1.04.151 2.7 2.7 0 0 1 .762.391 2.259 2.259 0 0 1 .517.537 2.905 2.905 0 0 1 .313.6 2.98 2.98 0 0 1 .156.582zm12.309-.318a3.479 3.479 0 0 1 .211 1.231v.5h-1.714V9a1.882 1.882 0 0 0-.108-.664 1.267 1.267 0 0 0-.3-.469 1.185 1.185 0 0 0-.444-.273 1.651 1.651 0 0 0-.547-.088 1.718 1.718 0 0 0-.561.088 1.177 1.177 0 0 0-.45.273 1.28 1.28 0 0 0-.3.469 1.883 1.883 0 0 0-.103.664v.879a1.923 1.923 0 0 0 .054.469.987.987 0 0 0 .224.41 1.821 1.821 0 0 0 .489.371 5.66 5.66 0 0 0 .844.361q.7.244 1.245.469a2.7 2.7 0 0 1 .914.606 2.464 2.464 0 0 1 .566 1.005 5.747 5.747 0 0 1 .2 1.661 5 5 0 0 1-.229 1.569 3.048 3.048 0 0 1-.635 1.118 2.554 2.554 0 0 1-.991.664 3.6 3.6 0 0 1-1.284.22 3.281 3.281 0 0 1-1.3-.249 2.824 2.824 0 0 1-.982-.684 3.057 3.057 0 0 1-.615-1.011 3.492 3.492 0 0 1-.215-1.23v-.5h1.719v.557a1.887 1.887 0 0 0 .107.664 1.268 1.268 0 0 0 .3.468 1.191 1.191 0 0 0 .445.274 1.673 1.673 0 0 0 .547.088 1.75 1.75 0 0 0 .561-.088 1.176 1.176 0 0 0 .449-.274 1.255 1.255 0 0 0 .3-.468 1.886 1.886 0 0 0 .108-.664v-.879a2.056 2.056 0 0 0-.054-.479 1.064 1.064 0 0 0-.22-.425 1.761 1.761 0 0 0-.488-.381 5.041 5.041 0 0 0-.85-.356c-.3-.1-.589-.194-.849-.288a5 5 0 0 1-.718-.322 2.576 2.576 0 0 1-.576-.43 2.246 2.246 0 0 1-.425-.61 3.28 3.28 0 0 1-.264-.865 7.109 7.109 0 0 1-.088-1.2 4.966 4.966 0 0 1 .225-1.572 3.02 3.02 0 0 1 .635-1.118 2.539 2.539 0 0 1 .991-.664 3.594 3.594 0 0 1 1.284-.22 3.176 3.176 0 0 1 1.3.254 2.985 2.985 0 0 1 .981.683 2.941 2.941 0 0 1 .611 1.011zm3.6 1.787h1.26v1.621h-1.26v5.2a1.36 1.36 0 0 0 .02.224.584.584 0 0 0 .078.215.452.452 0 0 0 .151.156.434.434 0 0 0 .239.059h.772V18.7h-.967c-.091 0-.2 0-.337-.01a1.725 1.725 0 0 1-.42-.073 1.788 1.788 0 0 1-.444-.2 1.387 1.387 0 0 1-.406-.391 2.115 2.115 0 0 1-.292-.644 3.458 3.458 0 0 1-.113-.957v-5.2h-.87V9.611h.879v-2.5h1.719zm6.582 0h1.719V18.7h-1.715v-.762h-.1a1.5 1.5 0 0 1-.381.411 1.928 1.928 0 0 1-.5.278 2.024 2.024 0 0 1-.748.122 1.9 1.9 0 0 1-.922-.2 1.758 1.758 0 0 1-.62-.562 2.343 2.343 0 0 1-.352-.849 5.112 5.112 0 0 1-.107-1.079V9.611h1.718v6.231a1.7 1.7 0 0 0 .24 1.045.849.849 0 0 0 .7.293 1.155 1.155 0 0 0 .444-.083 1.578 1.578 0 0 0 .63-.474zm7.041.762h-.1a2.132 2.132 0 0 0-.439-.43 2.551 2.551 0 0 0-.542-.3 1.883 1.883 0 0 0-.728-.132 3.822 3.822 0 0 0-.586.053 1.226 1.226 0 0 0-.629.323 2.027 2.027 0 0 0-.5.83 4.768 4.768 0 0 0-.2 1.577v3.711a4.809 4.809 0 0 0 .2 1.582 2.029 2.029 0 0 0 .5.835 1.224 1.224 0 0 0 .629.322 3.712 3.712 0 0 0 .586.054 2.006 2.006 0 0 0 .728-.122 2.85 2.85 0 0 0 .542-.269 2.159 2.159 0 0 0 .439-.4h.1v.693h1.719V5.979h-1.715zm0 6.318a1.8 1.8 0 0 1-.3.245 1.411 1.411 0 0 1-.332.17 1.181 1.181 0 0 1-.42.074.916.916 0 0 1-.5-.122.886.886 0 0 1-.293-.3 1.034 1.034 0 0 1-.131-.381 2.584 2.584 0 0 1-.03-.371v-3.7a2.573 2.573 0 0 1 .03-.371 1.034 1.034 0 0 1 .131-.381.886.886 0 0 1 .293-.3.916.916 0 0 1 .5-.122 1.067 1.067 0 0 1 .42.083 1.432 1.432 0 0 1 .332.19 1.707 1.707 0 0 1 .3.274zm3.656-10.712h1.719V7.7h-1.719zm0 3.632h1.719V18.7h-1.719zm8.863 1.783a2.513 2.513 0 0 0-.43-.938 2.286 2.286 0 0 0-.835-.679 3.535 3.535 0 0 0-2.676 0 2.294 2.294 0 0 0-.835.679 2.511 2.511 0 0 0-.429.938 4.616 4.616 0 0 0-.122 1.049v3.428a4.618 4.618 0 0 0 .122 1.05 2.5 2.5 0 0 0 .429.937 2.284 2.284 0 0 0 .835.679 3.523 3.523 0 0 0 2.676 0 2.276 2.276 0 0 0 .834-.679 2.5 2.5 0 0 0 .43-.937 4.618 4.618 0 0 0 .122-1.05v-3.428a4.616 4.616 0 0 0-.121-1.049zm-1.6 4.477a1.677 1.677 0 0 1-.239.962 1.02 1.02 0 0 1-1.533 0 1.669 1.669 0 0 1-.24-.962v-3.428a1.671 1.671 0 0 1 .24-.962 1.022 1.022 0 0 1 1.533 0 1.679 1.679 0 0 1 .239.962z"
		fill="#212121"/></symbol>
	<symbol viewBox="0 0 113 24" id="BrandMicrosoft" xmlns="http://www.w3.org/2000/svg"><path
		d="M46.99 4.8v14.4h-2.505V7.913h-.04L39.967 19.2h-1.661L33.718 7.913h-.031V19.2h-2.314V4.8h3.592l4.146 10.674h.061L43.547 4.8zm2.1 1.095a1.326 1.326 0 0 1 .437-1.01 1.483 1.483 0 0 1 1.042-.406 1.455 1.455 0 0 1 1.066.416 1.356 1.356 0 0 1 .423 1 1.3 1.3 0 0 1-.434.994 1.5 1.5 0 0 1-1.057.4 1.466 1.466 0 0 1-1.051-.406 1.317 1.317 0 0 1-.319-.449 1.3 1.3 0 0 1-.107-.539zm2.686 2.982V19.2h-2.439V8.877zm7.387 8.555a3.33 3.33 0 0 0 1.2-.251 5.011 5.011 0 0 0 1.207-.662v2.259a4.863 4.863 0 0 1-1.323.5 7.212 7.212 0 0 1-1.625.171 4.914 4.914 0 0 1-5.142-5.121 5.885 5.885 0 0 1 1.459-4.1 5.3 5.3 0 0 1 4.136-1.611 5.622 5.622 0 0 1 1.384.176 4.626 4.626 0 0 1 1.111.406v2.33a4.969 4.969 0 0 0-1.152-.638 3.339 3.339 0 0 0-1.2-.226 3.057 3.057 0 0 0-2.325.934A3.508 3.508 0 0 0 56 14.118a3.348 3.348 0 0 0 .85 2.44 3.064 3.064 0 0 0 2.31.874zM68.5 8.706a3.061 3.061 0 0 1 .524.041 2.127 2.127 0 0 1 .392.1v2.459a2.137 2.137 0 0 0-.558-.266 2.8 2.8 0 0 0-.891-.126 1.893 1.893 0 0 0-1.515.755 3.614 3.614 0 0 0-.619 2.319V19.2h-2.439V8.877h2.435V10.5h.041a2.844 2.844 0 0 1 1.006-1.32 2.733 2.733 0 0 1 1.62-.477zm1.048 5.483a5.584 5.584 0 0 1 1.449-4.057 5.344 5.344 0 0 1 4.025-1.5 4.964 4.964 0 0 1 3.789 1.441 5.425 5.425 0 0 1 1.363 3.891 5.48 5.48 0 0 1-1.449 4 5.252 5.252 0 0 1-3.944 1.486 5.163 5.163 0 0 1-3.819-1.411 5.2 5.2 0 0 1-1.418-3.85zm2.536-.08a3.681 3.681 0 0 0 .735 2.47 2.623 2.623 0 0 0 2.1.853 2.454 2.454 0 0 0 2.023-.853 3.942 3.942 0 0 0 .694-2.531 3.807 3.807 0 0 0-.719-2.515 2.5 2.5 0 0 0-2.018-.849 2.56 2.56 0 0 0-2.078.889 3.86 3.86 0 0 0-.741 2.536zm11.713-2.521a1.028 1.028 0 0 0 .074.446 1.051 1.051 0 0 0 .258.373 5.669 5.669 0 0 0 1.469.747 4.993 4.993 0 0 1 2.048 1.311 2.712 2.712 0 0 1 .588 1.762 2.824 2.824 0 0 1-1.122 2.34 4.771 4.771 0 0 1-3.033.884 7.246 7.246 0 0 1-1.424-.156 6.358 6.358 0 0 1-1.323-.4v-2.39a5.99 5.99 0 0 0 1.428.733 4.182 4.182 0 0 0 1.389.272 2.483 2.483 0 0 0 1.218-.231.824.824 0 0 0 .392-.774 1.068 1.068 0 0 0-.407-.848 6.047 6.047 0 0 0-1.545-.8 4.787 4.787 0 0 1-1.916-1.257 2.769 2.769 0 0 1-.563-1.788 2.819 2.819 0 0 1 1.111-2.294 4.442 4.442 0 0 1 2.884-.9 6.9 6.9 0 0 1 1.217.12 5.368 5.368 0 0 1 1.127.312v2.309a5.24 5.24 0 0 0-1.127-.559 3.785 3.785 0 0 0-1.278-.231 1.872 1.872 0 0 0-1.082.272.857.857 0 0 0-.387.745zm5.484 2.6a5.585 5.585 0 0 1 1.449-4.057 5.343 5.343 0 0 1 4.025-1.5 4.967 4.967 0 0 1 3.788 1.441 5.431 5.431 0 0 1 1.357 3.895 5.48 5.48 0 0 1-1.449 4 5.255 5.255 0 0 1-3.945 1.486 5.166 5.166 0 0 1-3.819-1.411 5.193 5.193 0 0 1-1.413-3.85zm2.536-.08a3.685 3.685 0 0 0 .734 2.47 2.62 2.62 0 0 0 2.105.854 2.451 2.451 0 0 0 2.022-.854 3.938 3.938 0 0 0 .694-2.53 3.8 3.8 0 0 0-.719-2.516 2.5 2.5 0 0 0-2.017-.848 2.559 2.559 0 0 0-2.079.888 3.857 3.857 0 0 0-.74 2.537zm16.168-3.244h-3.626V19.2h-2.467v-8.336h-1.731V8.877h1.731V7.441a3.569 3.569 0 0 1 1.062-2.667 3.727 3.727 0 0 1 2.722-1.039 6.067 6.067 0 0 1 .785.045 3.042 3.042 0 0 1 .6.136v2.1a2.486 2.486 0 0 0-.422-.171 2.211 2.211 0 0 0-.7-.1 1.47 1.47 0 0 0-1.177.477 2.1 2.1 0 0 0-.413 1.411v1.245h3.627V6.557l2.445-.743v3.063h2.466v1.988h-2.466V15.7a2.041 2.041 0 0 0 .347 1.346 1.388 1.388 0 0 0 1.092.391 1.61 1.61 0 0 0 .509-.1 2.391 2.391 0 0 0 .518-.241V19.1a2.885 2.885 0 0 1-.77.241 5.332 5.332 0 0 1-1.062.11 3.026 3.026 0 0 1-2.309-.818 3.484 3.484 0 0 1-.77-2.467z"
		fill="#737373"/><path d="M11.539 0H.109v11.407h11.43z" fill="#f25022"/><path d="M24.158 0H12.729v11.407h11.429z" fill="#7fba00"/><path d="M11.539 12.593H.109V24h11.43z" fill="#00a4ef"/><path d="M24.158 12.593H12.729V24h11.429z" fill="#ffb900"/></symbol>
	<symbol viewBox="0 0 24 24" id="BrandMicrosoft_mark" xmlns="http://www.w3.org/2000/svg"><path d="M11.406 0H0v11.407h11.406z" fill="#f25022"/><path d="M24 0H12.594v11.407H24z" fill="#7fba00"/><path d="M11.406 12.594H0V24h11.406z" fill="#00a4ef"/><path d="M24 12.594H12.594V24H24z" fill="#ffb900"/></symbol>
	<symbol viewBox="0 0 113 24" id="BrandMicrosoft_white" xmlns="http://www.w3.org/2000/svg"><path
		d="M46.99 4.8v14.4h-2.505V7.913h-.04L39.967 19.2h-1.661L33.718 7.913h-.031V19.2h-2.314V4.8h3.592l4.146 10.674h.061L43.547 4.8zm2.1 1.095a1.326 1.326 0 0 1 .437-1.01 1.483 1.483 0 0 1 1.042-.406 1.455 1.455 0 0 1 1.066.416 1.356 1.356 0 0 1 .423 1 1.3 1.3 0 0 1-.434.994 1.5 1.5 0 0 1-1.057.4 1.466 1.466 0 0 1-1.051-.406 1.317 1.317 0 0 1-.319-.449 1.3 1.3 0 0 1-.107-.539zm2.686 2.982V19.2h-2.439V8.877zm7.387 8.555a3.33 3.33 0 0 0 1.2-.251 5.011 5.011 0 0 0 1.207-.662v2.259a4.863 4.863 0 0 1-1.323.5 7.212 7.212 0 0 1-1.625.171 4.914 4.914 0 0 1-5.142-5.121 5.885 5.885 0 0 1 1.459-4.1 5.3 5.3 0 0 1 4.136-1.611 5.622 5.622 0 0 1 1.384.176 4.626 4.626 0 0 1 1.111.406v2.33a4.969 4.969 0 0 0-1.152-.638 3.339 3.339 0 0 0-1.2-.226 3.057 3.057 0 0 0-2.325.934A3.508 3.508 0 0 0 56 14.118a3.348 3.348 0 0 0 .85 2.44 3.064 3.064 0 0 0 2.31.874zM68.5 8.706a3.061 3.061 0 0 1 .524.041 2.127 2.127 0 0 1 .392.1v2.459a2.137 2.137 0 0 0-.558-.266 2.8 2.8 0 0 0-.891-.126 1.893 1.893 0 0 0-1.515.755 3.614 3.614 0 0 0-.619 2.319V19.2h-2.439V8.877h2.435V10.5h.041a2.844 2.844 0 0 1 1.006-1.32 2.733 2.733 0 0 1 1.62-.477zm1.048 5.483a5.584 5.584 0 0 1 1.449-4.057 5.344 5.344 0 0 1 4.025-1.5 4.964 4.964 0 0 1 3.789 1.441 5.425 5.425 0 0 1 1.363 3.891 5.48 5.48 0 0 1-1.449 4 5.252 5.252 0 0 1-3.944 1.486 5.163 5.163 0 0 1-3.819-1.411 5.2 5.2 0 0 1-1.418-3.85zm2.536-.08a3.681 3.681 0 0 0 .735 2.47 2.623 2.623 0 0 0 2.1.853 2.454 2.454 0 0 0 2.023-.853 3.942 3.942 0 0 0 .694-2.531 3.807 3.807 0 0 0-.719-2.515 2.5 2.5 0 0 0-2.018-.849 2.56 2.56 0 0 0-2.078.889 3.86 3.86 0 0 0-.741 2.536zm11.713-2.521a1.028 1.028 0 0 0 .074.446 1.051 1.051 0 0 0 .258.373 5.669 5.669 0 0 0 1.469.747 4.993 4.993 0 0 1 2.048 1.311 2.712 2.712 0 0 1 .588 1.762 2.824 2.824 0 0 1-1.122 2.34 4.771 4.771 0 0 1-3.033.884 7.246 7.246 0 0 1-1.424-.156 6.358 6.358 0 0 1-1.323-.4v-2.39a5.99 5.99 0 0 0 1.428.733 4.182 4.182 0 0 0 1.389.272 2.483 2.483 0 0 0 1.218-.231.824.824 0 0 0 .392-.774 1.068 1.068 0 0 0-.407-.848 6.047 6.047 0 0 0-1.545-.8 4.787 4.787 0 0 1-1.916-1.257 2.769 2.769 0 0 1-.563-1.788 2.819 2.819 0 0 1 1.111-2.294 4.442 4.442 0 0 1 2.884-.9 6.9 6.9 0 0 1 1.217.12 5.368 5.368 0 0 1 1.127.312v2.309a5.24 5.24 0 0 0-1.127-.559 3.785 3.785 0 0 0-1.278-.231 1.872 1.872 0 0 0-1.082.272.857.857 0 0 0-.387.745zm5.484 2.6a5.585 5.585 0 0 1 1.449-4.057 5.343 5.343 0 0 1 4.025-1.5 4.967 4.967 0 0 1 3.788 1.441 5.431 5.431 0 0 1 1.357 3.895 5.48 5.48 0 0 1-1.449 4 5.255 5.255 0 0 1-3.945 1.486 5.166 5.166 0 0 1-3.819-1.411 5.193 5.193 0 0 1-1.413-3.85zm2.536-.08a3.685 3.685 0 0 0 .734 2.47 2.62 2.62 0 0 0 2.105.854 2.451 2.451 0 0 0 2.022-.854 3.938 3.938 0 0 0 .694-2.53 3.8 3.8 0 0 0-.719-2.516 2.5 2.5 0 0 0-2.017-.848 2.559 2.559 0 0 0-2.079.888 3.857 3.857 0 0 0-.74 2.537zm16.168-3.244h-3.626V19.2h-2.467v-8.336h-1.731V8.877h1.731V7.441a3.569 3.569 0 0 1 1.062-2.667 3.727 3.727 0 0 1 2.722-1.039 6.067 6.067 0 0 1 .785.045 3.042 3.042 0 0 1 .6.136v2.1a2.486 2.486 0 0 0-.422-.171 2.211 2.211 0 0 0-.7-.1 1.47 1.47 0 0 0-1.177.477 2.1 2.1 0 0 0-.413 1.411v1.245h3.627V6.557l2.445-.743v3.063h2.466v1.988h-2.466V15.7a2.041 2.041 0 0 0 .347 1.346 1.388 1.388 0 0 0 1.092.391 1.61 1.61 0 0 0 .509-.1 2.391 2.391 0 0 0 .518-.241V19.1a2.885 2.885 0 0 1-.77.241 5.332 5.332 0 0 1-1.062.11 3.026 3.026 0 0 1-2.309-.818 3.484 3.484 0 0 1-.77-2.467z"
		fill="#fff"/><path d="M11.539 0H.109v11.407h11.43z" fill="#f25022"/><path d="M24.158 0H12.729v11.407h11.429z" fill="#7fba00"/><path d="M11.539 12.593H.109V24h11.43z" fill="#00a4ef"/><path d="M24.158 12.593H12.729V24h11.429z" fill="#ffb900"/></symbol>
</svg>
